<svg width='100'  height='100' ><defs><g id="screen_default-filled"><path d="M45,10v28H3V10H45 M46,9H2v30h44V9L46,9z M5,12v18h30V12H5z M10.21,26.71l-1.41-1.41L13.09,21l-4.29-4.29l1.41-1.41 L15.91,21L10.21,26.71z M31.21,25.29l-1.41,1.41L24.09,21l5.71-5.71l1.41,1.41L26.91,21L31.21,25.29z"></path></g><g id="screen_default"><path d="M34,13v16H6V13H34 M35,12H5v18h30V12L35,12z M45,10v28H3V10H45 M46,9H2v30h44V9L46,9z M10.21,26.71l-1.41-1.41L13.09,21 l-4.29-4.29l1.41-1.41L15.91,21L10.21,26.71z M31.21,25.29L26.91,21l4.29-4.29l-1.41-1.41L24.09,21l5.71,5.71L31.21,25.29z"></path></g><g id="screen_fullscreen-filled"><path d="M2,9v30h44V9H2z M14,14H7v7H5v-9h9V14z M43,36h-9v-2h7v-7h2V36z"></path></g><g id="screen_fullscreen"><path d="M14,14H7v7H5v-9h9V14z M34,36h9v-9h-2v7h-7V36z M45,10H3v28h42V10 M46,9v30H2V9H46 L46,9z"></path></g><g id="screen_miniplayer-filled"><path d="M45,10v28H3V10H45 M46,9H2v30h44V9L46,9z M43,26H26v10h17V26 M23,16v6.09l-6.68-6.68l-1.41,1.41L21.09,23H16v2h9v-9H23z"></path></g><g id="screen_miniplayer"><path d="M45,10v28H3V10H45 M46,9H2v30h44V9L46,9z M42,27v8H27v-8H42 M43,26H26v10h17V26L43,26z M23,16v6.09l-6.68-6.68l-1.41,1.41 L21.09,23H16v2h9v-9H23z"></path></g><g id="screen_theatre-filled"><path d="M45,10v28H3V10H45 M46,9H2v30h44V9L46,9z M5,12v22h38V12H5z M15.21,27.29l-1.41,1.41L8.09,23l5.71-5.71l1.41,1.41L10.91,23 L15.21,27.29z M34.21,28.71l-1.41-1.41L37.09,23l-4.29-4.29l1.41-1.41L39.91,23L34.21,28.71z"></path></g><g id="screen_theatre"><path d="M13.79,28.71L8.09,23l5.71-5.71l1.41,1.41L10.91,23l4.29,4.29L13.79,28.71z M39.91,23l-5.71-5.71l-1.41,1.41L37.09,23 l-4.29,4.29l1.41,1.41L39.91,23z M45,10H3v28h42V10 M46,9v30H2V9H46L46,9z M42,13H6v20h36V13 M43,12v22H5V12H43L43,12z"></path></g></defs></svg>